<svg xmlns="http://www.w3.org/2000/svg" viewBox="0 0 32 32">
  <!-- パステルピンクの背景 -->
  <circle cx="16" cy="16" r="16" fill="#FFE5EC"/>
  
  <!-- 丸みを帯びたビンゴカード -->
  <rect x="4" y="4" width="24" height="24" rx="6" fill="#FF97B7"/>
  
  <!-- かわいいドット柄 -->
  <circle cx="10" cy="10" r="2" fill="#FFFFFF" opacity="0.8"/>
  <circle cx="16" cy="10" r="2" fill="#FFFFFF" opacity="0.8"/>
  <circle cx="22" cy="10" r="2" fill="#FFFFFF" opacity="0.8"/>
  
  <circle cx="10" cy="16" r="2" fill="#FFFFFF" opacity="0.8"/>
  <circle cx="16" cy="16" r="2" fill="#FFD700"/>
  <circle cx="22" cy="16" r="2" fill="#FFFFFF" opacity="0.8"/>
  
  <circle cx="10" cy="22" r="2" fill="#FFFFFF" opacity="0.8"/>
  <circle cx="16" cy="22" r="2" fill="#FFFFFF" opacity="0.8"/>
  <circle cx="22" cy="22" r="2" fill="#FFFFFF" opacity="0.8"/>
  
  <!-- キラキラエフェクト -->
  <path d="M16 7l1 2 2 .5-1.5 1.5.5 2-2-1-2 1 .5-2-1.5-1.5 2-.5z" fill="#FFD700" opacity="0.9"/>
  <path d="M23 20l.5 1 1 .25-.75 .75.25 1-1-.5-1 .5.25-1-.75-.75 1-.25z" fill="#FFD700" opacity="0.7"/>
  <path d="M8 23l.5 1 1 .25-.75 .75.25 1-1-.5-1 .5.25-1-.75-.75 1-.25z" fill="#FFD700" opacity="0.7"/>
</svg>
